<svg width="85" height="22" viewBox="0 0 85 22" fill="none" xmlns="http://www.w3.org/2000/svg">
<rect width="85" height="22" rx="4" fill="#171821"/>
<circle cx="10.5" cy="11" r="2.5" fill="#FCB859"/>
<path d="M23.669 7.72727V15H22.6605L18.9638 9.66619H18.8963V15H17.799V7.72727H18.8146L22.5149 13.0682H22.5824V7.72727H23.669ZM27.5353 15.1101C26.9979 15.1101 26.5351 14.9953 26.1468 14.7656C25.7609 14.5336 25.4627 14.2081 25.252 13.7891C25.0436 13.3677 24.9395 12.8741 24.9395 12.3082C24.9395 11.7495 25.0436 11.2571 25.252 10.831C25.4627 10.4048 25.7562 10.0722 26.1326 9.8331C26.5114 9.59399 26.9541 9.47443 27.4608 9.47443C27.7685 9.47443 28.0668 9.52533 28.3556 9.62713C28.6445 9.72893 28.9037 9.88873 29.1333 10.1065C29.363 10.3243 29.5441 10.6072 29.6767 10.9553C29.8092 11.3009 29.8755 11.7211 29.8755 12.2159V12.5923H25.5396V11.7969H28.835C28.835 11.5175 28.7782 11.2701 28.6646 11.0547C28.551 10.8369 28.3912 10.6652 28.1852 10.5398C27.9816 10.4143 27.7425 10.3516 27.4679 10.3516C27.1696 10.3516 26.9092 10.425 26.6866 10.5717C26.4664 10.7161 26.296 10.9055 26.1752 11.1399C26.0569 11.3719 25.9977 11.6241 25.9977 11.8963V12.5178C25.9977 12.8823 26.0616 13.1925 26.1895 13.4482C26.3197 13.7038 26.5008 13.8991 26.7328 14.0341C26.9648 14.1667 27.2359 14.233 27.546 14.233C27.7472 14.233 27.9307 14.2045 28.0964 14.1477C28.2621 14.0885 28.4054 14.0009 28.5261 13.8849C28.6468 13.7689 28.7392 13.6257 28.8031 13.4553L29.8081 13.6364C29.7276 13.9323 29.5832 14.1915 29.3748 14.4141C29.1689 14.6342 28.9096 14.8059 28.5971 14.929C28.287 15.0497 27.9331 15.1101 27.5353 15.1101ZM32.2264 15L30.6213 9.54545H31.7186L32.7875 13.5511H32.8407L33.9132 9.54545H35.0105L36.0758 13.5334H36.1291L37.1909 9.54545H38.2882L36.6866 15H35.6035L34.4956 11.0618H34.4139L33.3059 15H32.2264ZM42.6632 7.72727L44.6873 13.6506H44.769L46.7931 7.72727H47.9792L45.362 15H44.0943L41.4771 7.72727H42.6632ZM48.9442 15V9.54545H50.006V15H48.9442ZM49.4805 8.70384C49.2958 8.70384 49.1372 8.64228 49.0046 8.51918C48.8744 8.3937 48.8093 8.24455 48.8093 8.07173C48.8093 7.89654 48.8744 7.7474 49.0046 7.62429C49.1372 7.49882 49.2958 7.43608 49.4805 7.43608C49.6651 7.43608 49.8226 7.49882 49.9528 7.62429C50.0853 7.7474 50.1516 7.89654 50.1516 8.07173C50.1516 8.24455 50.0853 8.3937 49.9528 8.51918C49.8226 8.64228 49.6651 8.70384 49.4805 8.70384ZM55.5218 10.8771L54.5595 11.0476C54.5192 10.9245 54.4553 10.8073 54.3677 10.696C54.2825 10.5848 54.1665 10.4936 54.0197 10.4226C53.8729 10.3516 53.6895 10.3161 53.4693 10.3161C53.1686 10.3161 52.9177 10.3835 52.7164 10.5185C52.5152 10.651 52.4146 10.8227 52.4146 11.0334C52.4146 11.2157 52.4821 11.3625 52.617 11.4737C52.752 11.585 52.9698 11.6761 53.2704 11.7472L54.1369 11.946C54.6388 12.062 55.0128 12.2408 55.2591 12.4822C55.5053 12.7237 55.6284 13.0374 55.6284 13.4233C55.6284 13.75 55.5337 14.0412 55.3443 14.2969C55.1573 14.5502 54.8957 14.7491 54.5595 14.8935C54.2257 15.0379 53.8386 15.1101 53.3983 15.1101C52.7875 15.1101 52.2891 14.9799 51.9032 14.7195C51.5173 14.4567 51.2806 14.0838 51.193 13.6009L52.2193 13.4446C52.2832 13.7121 52.4146 13.9145 52.6135 14.0518C52.8123 14.1868 53.0716 14.2543 53.3912 14.2543C53.7392 14.2543 54.0173 14.1821 54.2257 14.0376C54.434 13.8909 54.5382 13.7121 54.5382 13.5014C54.5382 13.331 54.4743 13.1877 54.3464 13.0717C54.2209 12.9557 54.028 12.8681 53.7676 12.8089L52.8443 12.6065C52.3353 12.4905 51.9589 12.3059 51.715 12.0526C51.4735 11.7992 51.3528 11.4785 51.3528 11.0902C51.3528 10.7682 51.4428 10.4865 51.6227 10.245C51.8026 10.0036 52.0512 9.81534 52.3684 9.6804C52.6857 9.54309 53.0491 9.47443 53.4586 9.47443C54.0481 9.47443 54.5121 9.60227 54.8507 9.85795C55.1892 10.1113 55.4129 10.451 55.5218 10.8771ZM56.7958 15V9.54545H57.8576V15H56.7958ZM57.332 8.70384C57.1474 8.70384 56.9888 8.64228 56.8562 8.51918C56.726 8.3937 56.6609 8.24455 56.6609 8.07173C56.6609 7.89654 56.726 7.7474 56.8562 7.62429C56.9888 7.49882 57.1474 7.43608 57.332 7.43608C57.5167 7.43608 57.6741 7.49882 57.8043 7.62429C57.9369 7.7474 58.0032 7.89654 58.0032 8.07173C58.0032 8.24455 57.9369 8.3937 57.8043 8.51918C57.6741 8.64228 57.5167 8.70384 57.332 8.70384ZM61.8322 9.54545V10.3977H58.8528V9.54545H61.8322ZM59.6518 8.23864H60.7136V13.3984C60.7136 13.6044 60.7444 13.7595 60.8059 13.8636C60.8675 13.9654 60.9468 14.0353 61.0439 14.0732C61.1433 14.1087 61.251 14.1264 61.367 14.1264C61.4522 14.1264 61.5268 14.1205 61.5907 14.1087C61.6547 14.0968 61.7044 14.0874 61.7399 14.0803L61.9316 14.9574C61.8701 14.9811 61.7825 15.0047 61.6689 15.0284C61.5552 15.0545 61.4132 15.0687 61.2427 15.071C60.9634 15.0758 60.7029 15.026 60.4615 14.9219C60.22 14.8177 60.0247 14.6567 59.8755 14.4389C59.7264 14.2211 59.6518 13.9477 59.6518 13.6186V8.23864ZM65.2457 15.1101C64.7344 15.1101 64.2881 14.9929 63.907 14.7585C63.5258 14.5241 63.2299 14.1963 63.0192 13.7749C62.8085 13.3535 62.7031 12.861 62.7031 12.2976C62.7031 11.7318 62.8085 11.237 63.0192 10.8132C63.2299 10.3894 63.5258 10.0604 63.907 9.82599C64.2881 9.59162 64.7344 9.47443 65.2457 9.47443C65.7571 9.47443 66.2034 9.59162 66.5845 9.82599C66.9657 10.0604 67.2616 10.3894 67.4723 10.8132C67.683 11.237 67.7884 11.7318 67.7884 12.2976C67.7884 12.861 67.683 13.3535 67.4723 13.7749C67.2616 14.1963 66.9657 14.5241 66.5845 14.7585C66.2034 14.9929 65.7571 15.1101 65.2457 15.1101ZM65.2493 14.2188C65.5807 14.2188 65.8554 14.1312 66.0732 13.956C66.291 13.7808 66.4519 13.5476 66.5561 13.2564C66.6626 12.9652 66.7159 12.6444 66.7159 12.294C66.7159 11.946 66.6626 11.6264 66.5561 11.3352C66.4519 11.0417 66.291 10.8061 66.0732 10.6286C65.8554 10.451 65.5807 10.3622 65.2493 10.3622C64.9155 10.3622 64.6385 10.451 64.4183 10.6286C64.2005 10.8061 64.0384 11.0417 63.9318 11.3352C63.8277 11.6264 63.7756 11.946 63.7756 12.294C63.7756 12.6444 63.8277 12.9652 63.9318 13.2564C64.0384 13.5476 64.2005 13.7808 64.4183 13.956C64.6385 14.1312 64.9155 14.2188 65.2493 14.2188ZM68.9735 15V9.54545H69.9998V10.4119H70.0566C70.1561 10.1184 70.3313 9.88755 70.5822 9.71946C70.8355 9.54901 71.122 9.46378 71.4416 9.46378C71.5079 9.46378 71.586 9.46615 71.676 9.47088C71.7683 9.47562 71.8405 9.48153 71.8926 9.48864V10.5043C71.85 10.4924 71.7742 10.4794 71.6653 10.4652C71.5564 10.4486 71.4475 10.4403 71.3386 10.4403C71.0877 10.4403 70.8639 10.4936 70.6674 10.6001C70.4733 10.7043 70.3194 10.8499 70.2058 11.0369C70.0922 11.2216 70.0353 11.4323 70.0353 11.669V15H68.9735ZM76.8988 10.8771L75.9364 11.0476C75.8962 10.9245 75.8323 10.8073 75.7447 10.696C75.6594 10.5848 75.5434 10.4936 75.3967 10.4226C75.2499 10.3516 75.0664 10.3161 74.8462 10.3161C74.5456 10.3161 74.2946 10.3835 74.0934 10.5185C73.8922 10.651 73.7915 10.8227 73.7915 11.0334C73.7915 11.2157 73.859 11.3625 73.994 11.4737C74.1289 11.585 74.3467 11.6761 74.6474 11.7472L75.5138 11.946C76.0157 12.062 76.3898 12.2408 76.636 12.4822C76.8822 12.7237 77.0053 13.0374 77.0053 13.4233C77.0053 13.75 76.9106 14.0412 76.7212 14.2969C76.5342 14.5502 76.2726 14.7491 75.9364 14.8935C75.6026 15.0379 75.2156 15.1101 74.7752 15.1101C74.1644 15.1101 73.6661 14.9799 73.2802 14.7195C72.8943 14.4567 72.6576 14.0838 72.57 13.6009L73.5962 13.4446C73.6602 13.7121 73.7915 13.9145 73.9904 14.0518C74.1893 14.1868 74.4485 14.2543 74.7681 14.2543C75.1161 14.2543 75.3943 14.1821 75.6026 14.0376C75.811 13.8909 75.9151 13.7121 75.9151 13.5014C75.9151 13.331 75.8512 13.1877 75.7234 13.0717C75.5979 12.9557 75.4049 12.8681 75.1445 12.8089L74.2212 12.6065C73.7122 12.4905 73.3358 12.3059 73.092 12.0526C72.8505 11.7992 72.7298 11.4785 72.7298 11.0902C72.7298 10.7682 72.8197 10.4865 72.9996 10.245C73.1796 10.0036 73.4281 9.81534 73.7454 9.6804C74.0626 9.54309 74.426 9.47443 74.8356 9.47443C75.4251 9.47443 75.8891 9.60227 76.2276 9.85795C76.5662 10.1113 76.7899 10.451 76.8988 10.8771Z" fill="white"/>
</svg>
