<svg width="504" height="44" viewBox="0 0 504 44" fill="none" xmlns="http://www.w3.org/2000/svg">
<rect width="504" height="44" rx="8" fill="#21222D"/>
<rect x="16" y="15.5" width="13" height="13" fill="#D9D9D9"/>
<path d="M27.9166 27.4167L25.3588 24.8543L27.9166 27.4167ZM26.7763 21.4298C26.7763 22.7152 26.2657 23.9479 25.3568 24.8568C24.4479 25.7657 23.2152 26.2763 21.9298 26.2763C20.6444 26.2763 19.4117 25.7657 18.5028 24.8568C17.5939 23.9479 17.0833 22.7152 17.0833 21.4298C17.0833 20.1445 17.5939 18.9117 18.5028 18.0028C19.4117 17.094 20.6444 16.5833 21.9298 16.5833C23.2152 16.5833 24.4479 17.094 25.3568 18.0028C26.2657 18.9117 26.7763 20.1445 26.7763 21.4298V21.4298Z" stroke="#ABABAB" stroke-width="1.14035" stroke-linecap="round" stroke-linejoin="round"/>
<path d="M40.7188 20.0653C40.6733 19.6619 40.4858 19.3494 40.1562 19.1278C39.8267 18.9034 39.4119 18.7912 38.9119 18.7912C38.554 18.7912 38.2443 18.848 37.983 18.9616C37.7216 19.0724 37.5185 19.2259 37.3736 19.4219C37.2315 19.6151 37.1605 19.8352 37.1605 20.0824C37.1605 20.2898 37.2088 20.4687 37.3054 20.6193C37.4048 20.7699 37.5341 20.8963 37.6932 20.9986C37.8551 21.098 38.0284 21.1818 38.2131 21.25C38.3977 21.3153 38.5753 21.3693 38.7457 21.4119L39.598 21.6335C39.8764 21.7017 40.1619 21.794 40.4545 21.9105C40.7472 22.027 41.0185 22.1804 41.2685 22.3707C41.5185 22.5611 41.7202 22.7969 41.8736 23.0781C42.0298 23.3594 42.108 23.696 42.108 24.0881C42.108 24.5824 41.9801 25.0213 41.7244 25.4048C41.4716 25.7884 41.1037 26.0909 40.6207 26.3125C40.1406 26.5341 39.5597 26.6449 38.8778 26.6449C38.2244 26.6449 37.6591 26.5412 37.1818 26.3338C36.7045 26.1264 36.331 25.8324 36.0611 25.4517C35.7912 25.0682 35.642 24.6136 35.6136 24.0881H36.9347C36.9602 24.4034 37.0625 24.6662 37.2415 24.8764C37.4233 25.0838 37.6548 25.2386 37.9361 25.3409C38.2202 25.4403 38.5312 25.4901 38.8693 25.4901C39.2415 25.4901 39.5724 25.4318 39.8622 25.3153C40.1548 25.196 40.3849 25.0312 40.5526 24.821C40.7202 24.608 40.804 24.3594 40.804 24.0753C40.804 23.8168 40.7301 23.6051 40.5824 23.4403C40.4375 23.2756 40.2401 23.1392 39.9901 23.0312C39.7429 22.9233 39.4631 22.8281 39.1506 22.7457L38.1193 22.4645C37.4205 22.2741 36.8665 21.9943 36.4574 21.625C36.0511 21.2557 35.848 20.767 35.848 20.1591C35.848 19.6562 35.9844 19.2173 36.2571 18.8423C36.5298 18.4673 36.8991 18.1761 37.3651 17.9688C37.831 17.7585 38.3565 17.6534 38.9418 17.6534C39.5327 17.6534 40.054 17.7571 40.5057 17.9645C40.9602 18.1719 41.3182 18.4574 41.5795 18.821C41.8409 19.1818 41.9773 19.5966 41.9886 20.0653H40.7188ZM46.4002 26.6321C45.7553 26.6321 45.1999 26.4943 44.734 26.2188C44.271 25.9403 43.913 25.5497 43.6602 25.0469C43.4102 24.5412 43.2852 23.9489 43.2852 23.2699C43.2852 22.5994 43.4102 22.0085 43.6602 21.4972C43.913 20.9858 44.2653 20.5866 44.717 20.2997C45.1715 20.0128 45.7028 19.8693 46.3107 19.8693C46.68 19.8693 47.038 19.9304 47.3846 20.0526C47.7312 20.1747 48.0423 20.3665 48.3178 20.6278C48.5934 20.8892 48.8107 21.2287 48.9698 21.6463C49.1289 22.0611 49.2085 22.5653 49.2085 23.1591V23.6108H44.0053V22.6562H47.9599C47.9599 22.321 47.8917 22.0241 47.7553 21.7656C47.619 21.5043 47.4272 21.2983 47.18 21.1477C46.9357 20.9972 46.6488 20.9219 46.3192 20.9219C45.9613 20.9219 45.6488 21.0099 45.3817 21.1861C45.1175 21.3594 44.913 21.5866 44.7681 21.8679C44.6261 22.1463 44.555 22.4489 44.555 22.7756V23.5213C44.555 23.9588 44.6317 24.331 44.7852 24.6378C44.9414 24.9446 45.1587 25.179 45.4371 25.3409C45.7156 25.5 46.0408 25.5795 46.413 25.5795C46.6545 25.5795 46.8746 25.5455 47.0735 25.4773C47.2724 25.4062 47.4442 25.3011 47.5891 25.1619C47.734 25.0227 47.8448 24.8509 47.9215 24.6463L49.1275 24.8636C49.0309 25.2187 48.8576 25.5298 48.6076 25.7969C48.3604 26.0611 48.0494 26.267 47.6744 26.4148C47.3022 26.5597 46.8775 26.6321 46.4002 26.6321ZM52.527 26.6449C52.1122 26.6449 51.7372 26.5682 51.402 26.4148C51.0668 26.2585 50.8011 26.0327 50.6051 25.7372C50.4119 25.4418 50.3153 25.0795 50.3153 24.6506C50.3153 24.2812 50.3864 23.9773 50.5284 23.7386C50.6705 23.5 50.8622 23.3111 51.1037 23.1719C51.3452 23.0327 51.6151 22.9276 51.9134 22.8565C52.2116 22.7855 52.5156 22.7315 52.8253 22.6946C53.2173 22.6491 53.5355 22.6122 53.7798 22.5838C54.0241 22.5526 54.2017 22.5028 54.3125 22.4347C54.4233 22.3665 54.4787 22.2557 54.4787 22.1023V22.0724C54.4787 21.7003 54.3736 21.4119 54.1634 21.2074C53.956 21.0028 53.6463 20.9006 53.2344 20.9006C52.8054 20.9006 52.4673 20.9957 52.2202 21.1861C51.9759 21.3736 51.8068 21.5824 51.7131 21.8125L50.5156 21.5398C50.6577 21.142 50.8651 20.821 51.1378 20.5767C51.4134 20.3295 51.7301 20.1506 52.0881 20.0398C52.446 19.9261 52.8224 19.8693 53.2173 19.8693C53.4787 19.8693 53.7557 19.9006 54.0483 19.9631C54.3438 20.0227 54.6193 20.1335 54.875 20.2955C55.1335 20.4574 55.3452 20.6889 55.5099 20.9901C55.6747 21.2884 55.7571 21.6761 55.7571 22.1534V26.5H54.5128V25.6051H54.4616C54.3793 25.7699 54.2557 25.9318 54.0909 26.0909C53.9261 26.25 53.7145 26.3821 53.456 26.4872C53.1974 26.5923 52.8878 26.6449 52.527 26.6449ZM52.804 25.6222C53.1563 25.6222 53.4574 25.5526 53.7074 25.4134C53.9602 25.2741 54.152 25.0923 54.2827 24.8679C54.4162 24.6406 54.483 24.3977 54.483 24.1392V23.2955C54.4375 23.3409 54.3494 23.3835 54.2188 23.4233C54.0909 23.4602 53.9446 23.4929 53.7798 23.5213C53.6151 23.5469 53.4545 23.571 53.2983 23.5938C53.142 23.6136 53.0114 23.6307 52.9062 23.6449C52.6591 23.6761 52.4332 23.7287 52.2287 23.8026C52.027 23.8764 51.8651 23.983 51.7429 24.1222C51.6236 24.2585 51.5639 24.4403 51.5639 24.6676C51.5639 24.983 51.6804 25.2216 51.9134 25.3835C52.1463 25.5426 52.4432 25.6222 52.804 25.6222ZM57.4542 26.5V19.9545H58.6857V20.9943H58.7539C58.8732 20.642 59.0835 20.3651 59.3846 20.1634C59.6886 19.9588 60.0323 19.8565 60.4158 19.8565C60.4954 19.8565 60.5891 19.8594 60.6971 19.8651C60.8079 19.8707 60.8945 19.8778 60.957 19.8864V21.1051C60.9059 21.0909 60.815 21.0753 60.6843 21.0582C60.5536 21.0384 60.4229 21.0284 60.2923 21.0284C59.9911 21.0284 59.7227 21.0923 59.4869 21.2202C59.2539 21.3452 59.0692 21.5199 58.9329 21.7443C58.7965 21.9659 58.7283 22.2187 58.7283 22.5028V26.5H57.4542ZM64.5824 26.6321C63.9489 26.6321 63.4034 26.4886 62.946 26.2017C62.4915 25.9119 62.142 25.5128 61.8977 25.0043C61.6534 24.4957 61.5312 23.9134 61.5312 23.2571C61.5312 22.5923 61.6562 22.0057 61.9062 21.4972C62.1562 20.9858 62.5085 20.5866 62.9631 20.2997C63.4176 20.0128 63.9531 19.8693 64.5696 19.8693C65.0668 19.8693 65.5099 19.9616 65.8991 20.1463C66.2884 20.3281 66.6023 20.5838 66.8409 20.9134C67.0824 21.2429 67.2259 21.6278 67.2713 22.0682H66.0312C65.9631 21.7614 65.8068 21.4972 65.5625 21.2756C65.321 21.054 64.9972 20.9432 64.5909 20.9432C64.2358 20.9432 63.9247 21.0369 63.6577 21.2244C63.3935 21.4091 63.1875 21.6733 63.0398 22.017C62.892 22.358 62.8182 22.7614 62.8182 23.2273C62.8182 23.7045 62.8906 24.1165 63.0355 24.4631C63.1804 24.8097 63.3849 25.0781 63.6491 25.2685C63.9162 25.4588 64.2301 25.554 64.5909 25.554C64.8324 25.554 65.0511 25.5099 65.2472 25.4219C65.446 25.331 65.6122 25.2017 65.7457 25.0341C65.8821 24.8665 65.9773 24.6648 66.0312 24.429H67.2713C67.2259 24.8523 67.0881 25.2301 66.858 25.5625C66.6278 25.8949 66.3196 26.1562 65.9332 26.3466C65.5497 26.5369 65.0994 26.6321 64.5824 26.6321ZM69.908 22.6136V26.5H68.6339V17.7727H69.891V21.0199H69.9719C70.1254 20.6676 70.3597 20.3878 70.6751 20.1804C70.9904 19.973 71.4023 19.8693 71.9109 19.8693C72.3597 19.8693 72.7518 19.9616 73.087 20.1463C73.4251 20.331 73.6864 20.6065 73.8711 20.973C74.0586 21.3366 74.1523 21.7912 74.1523 22.3366V26.5H72.8782V22.4901C72.8782 22.0099 72.7546 21.6378 72.5075 21.3736C72.2603 21.1065 71.9165 20.973 71.4762 20.973C71.1751 20.973 70.9052 21.0369 70.6665 21.1648C70.4308 21.2926 70.2447 21.4801 70.1083 21.7273C69.9748 21.9716 69.908 22.267 69.908 22.6136ZM80.3026 22.6136V26.5H79.0284V17.7727H80.2855V21.0199H80.3665C80.5199 20.6676 80.7543 20.3878 81.0696 20.1804C81.3849 19.973 81.7969 19.8693 82.3054 19.8693C82.7543 19.8693 83.1463 19.9616 83.4815 20.1463C83.8196 20.331 84.081 20.6065 84.2656 20.973C84.4531 21.3366 84.5469 21.7912 84.5469 22.3366V26.5H83.2727V22.4901C83.2727 22.0099 83.1491 21.6378 82.902 21.3736C82.6548 21.1065 82.3111 20.973 81.8707 20.973C81.5696 20.973 81.2997 21.0369 81.0611 21.1648C80.8253 21.2926 80.6392 21.4801 80.5028 21.7273C80.3693 21.9716 80.3026 22.267 80.3026 22.6136ZM89.0682 26.6321C88.4233 26.6321 87.8679 26.4943 87.402 26.2188C86.9389 25.9403 86.581 25.5497 86.3281 25.0469C86.0781 24.5412 85.9531 23.9489 85.9531 23.2699C85.9531 22.5994 86.0781 22.0085 86.3281 21.4972C86.581 20.9858 86.9332 20.5866 87.3849 20.2997C87.8395 20.0128 88.3707 19.8693 88.9787 19.8693C89.348 19.8693 89.706 19.9304 90.0526 20.0526C90.3991 20.1747 90.7102 20.3665 90.9858 20.6278C91.2614 20.8892 91.4787 21.2287 91.6378 21.6463C91.7969 22.0611 91.8764 22.5653 91.8764 23.1591V23.6108H86.6733V22.6562H90.6278C90.6278 22.321 90.5597 22.0241 90.4233 21.7656C90.2869 21.5043 90.0952 21.2983 89.848 21.1477C89.6037 20.9972 89.3168 20.9219 88.9872 20.9219C88.6293 20.9219 88.3168 21.0099 88.0497 21.1861C87.7855 21.3594 87.581 21.5866 87.4361 21.8679C87.294 22.1463 87.223 22.4489 87.223 22.7756V23.5213C87.223 23.9588 87.2997 24.331 87.4531 24.6378C87.6094 24.9446 87.8267 25.179 88.1051 25.3409C88.3835 25.5 88.7088 25.5795 89.081 25.5795C89.3224 25.5795 89.5426 25.5455 89.7415 25.4773C89.9403 25.4062 90.1122 25.3011 90.2571 25.1619C90.402 25.0227 90.5128 24.8509 90.5895 24.6463L91.7955 24.8636C91.6989 25.2187 91.5256 25.5298 91.2756 25.7969C91.0284 26.0611 90.7173 26.267 90.3423 26.4148C89.9702 26.5597 89.5455 26.6321 89.0682 26.6321ZM93.2901 26.5V19.9545H94.5217V20.9943H94.5898C94.7092 20.642 94.9194 20.3651 95.2205 20.1634C95.5245 19.9588 95.8683 19.8565 96.2518 19.8565C96.3313 19.8565 96.4251 19.8594 96.533 19.8651C96.6438 19.8707 96.7305 19.8778 96.793 19.8864V21.1051C96.7418 21.0909 96.6509 21.0753 96.5202 21.0582C96.3896 21.0384 96.2589 21.0284 96.1282 21.0284C95.8271 21.0284 95.5586 21.0923 95.3228 21.2202C95.0898 21.3452 94.9052 21.5199 94.7688 21.7443C94.6325 21.9659 94.5643 22.2187 94.5643 22.5028V26.5H93.2901ZM100.482 26.6321C99.8374 26.6321 99.282 26.4943 98.8161 26.2188C98.353 25.9403 97.995 25.5497 97.7422 25.0469C97.4922 24.5412 97.3672 23.9489 97.3672 23.2699C97.3672 22.5994 97.4922 22.0085 97.7422 21.4972C97.995 20.9858 98.3473 20.5866 98.799 20.2997C99.2536 20.0128 99.7848 19.8693 100.393 19.8693C100.762 19.8693 101.12 19.9304 101.467 20.0526C101.813 20.1747 102.124 20.3665 102.4 20.6278C102.675 20.8892 102.893 21.2287 103.052 21.6463C103.211 22.0611 103.29 22.5653 103.29 23.1591V23.6108H98.0874V22.6562H102.042C102.042 22.321 101.974 22.0241 101.837 21.7656C101.701 21.5043 101.509 21.2983 101.262 21.1477C101.018 20.9972 100.731 20.9219 100.401 20.9219C100.043 20.9219 99.7308 21.0099 99.4638 21.1861C99.1996 21.3594 98.995 21.5866 98.8501 21.8679C98.7081 22.1463 98.6371 22.4489 98.6371 22.7756V23.5213C98.6371 23.9588 98.7138 24.331 98.8672 24.6378C99.0234 24.9446 99.2408 25.179 99.5192 25.3409C99.7976 25.5 100.123 25.5795 100.495 25.5795C100.737 25.5795 100.957 25.5455 101.156 25.4773C101.354 25.4062 101.526 25.3011 101.671 25.1619C101.816 25.0227 101.927 24.8509 102.004 24.6463L103.21 24.8636C103.113 25.2187 102.94 25.5298 102.69 25.7969C102.442 26.0611 102.131 26.267 101.756 26.4148C101.384 26.5597 100.96 26.6321 100.482 26.6321ZM105.544 26.581C105.311 26.581 105.11 26.4986 104.943 26.3338C104.775 26.1662 104.691 25.9645 104.691 25.7287C104.691 25.4957 104.775 25.2969 104.943 25.1321C105.11 24.9645 105.311 24.8807 105.544 24.8807C105.777 24.8807 105.977 24.9645 106.145 25.1321C106.312 25.2969 106.396 25.4957 106.396 25.7287C106.396 25.8849 106.356 26.0284 106.277 26.1591C106.2 26.2869 106.098 26.3892 105.97 26.4659C105.842 26.5426 105.7 26.581 105.544 26.581ZM108.942 26.581C108.709 26.581 108.509 26.4986 108.341 26.3338C108.174 26.1662 108.09 25.9645 108.09 25.7287C108.09 25.4957 108.174 25.2969 108.341 25.1321C108.509 24.9645 108.709 24.8807 108.942 24.8807C109.175 24.8807 109.375 24.9645 109.543 25.1321C109.711 25.2969 109.794 25.4957 109.794 25.7287C109.794 25.8849 109.755 26.0284 109.675 26.1591C109.598 26.2869 109.496 26.3892 109.368 26.4659C109.24 26.5426 109.098 26.581 108.942 26.581ZM112.341 26.581C112.108 26.581 111.907 26.4986 111.74 26.3338C111.572 26.1662 111.488 25.9645 111.488 25.7287C111.488 25.4957 111.572 25.2969 111.74 25.1321C111.907 24.9645 112.108 24.8807 112.341 24.8807C112.574 24.8807 112.774 24.9645 112.941 25.1321C113.109 25.2969 113.193 25.4957 113.193 25.7287C113.193 25.8849 113.153 26.0284 113.074 26.1591C112.997 26.2869 112.895 26.3892 112.767 26.4659C112.639 26.5426 112.497 26.581 112.341 26.581Z" fill="#D2D2D2"/>
</svg>
