<svg width="129" height="12" viewBox="0 0 129 12" fill="none" xmlns="http://www.w3.org/2000/svg">
<path d="M2.72461 9.99756L4.76074 3.479H5.6543L5.47852 4.77539L3.40576 11.4038H2.53418L2.72461 9.99756ZM1.35498 3.479L3.09082 10.0708L3.21533 11.4038H2.2998L0 3.479H1.35498ZM7.60254 10.0195L9.25781 3.479H10.6055L8.30566 11.4038H7.39746L7.60254 10.0195ZM5.85205 3.479L7.84424 9.8877L8.07129 11.4038H7.20703L5.07568 4.76074L4.8999 3.479H5.85205ZM14.0039 9.99756L16.04 3.479H16.9336L16.7578 4.77539L14.6851 11.4038H13.8135L14.0039 9.99756ZM12.6343 3.479L14.3701 10.0708L14.4946 11.4038H13.5791L11.2793 3.479H12.6343ZM18.8818 10.0195L20.5371 3.479H21.8848L19.585 11.4038H18.6768L18.8818 10.0195ZM17.1313 3.479L19.1235 9.8877L19.3506 11.4038H18.4863L16.355 4.76074L16.1792 3.479H17.1313ZM25.2832 9.99756L27.3193 3.479H28.2129L28.0371 4.77539L25.9644 11.4038H25.0928L25.2832 9.99756ZM23.9136 3.479L25.6494 10.0708L25.7739 11.4038H24.8584L22.5586 3.479H23.9136ZM30.1611 10.0195L31.8164 3.479H33.1641L30.8643 11.4038H29.9561L30.1611 10.0195ZM28.4106 3.479L30.4028 9.8877L30.6299 11.4038H29.7656L27.6343 4.76074L27.4585 3.479H28.4106ZM33.6694 10.686C33.6694 10.4565 33.7402 10.2637 33.8818 10.1074C34.0283 9.94629 34.2383 9.86572 34.5117 9.86572C34.7852 9.86572 34.9927 9.94629 35.1343 10.1074C35.2808 10.2637 35.354 10.4565 35.354 10.686C35.354 10.9106 35.2808 11.1011 35.1343 11.2573C34.9927 11.4136 34.7852 11.4917 34.5117 11.4917C34.2383 11.4917 34.0283 11.4136 33.8818 11.2573C33.7402 11.1011 33.6694 10.9106 33.6694 10.686ZM38.9575 5.1709V11.4038H37.6025V3.479H38.8843L38.9575 5.1709ZM38.6353 7.14111L38.0713 7.11914C38.0762 6.57715 38.1567 6.07666 38.313 5.61768C38.4692 5.15381 38.689 4.75098 38.9722 4.40918C39.2554 4.06738 39.5923 3.80371 39.9829 3.61816C40.3784 3.42773 40.8154 3.33252 41.2939 3.33252C41.6846 3.33252 42.0361 3.38623 42.3486 3.49365C42.6611 3.59619 42.9272 3.76221 43.147 3.9917C43.3716 4.22119 43.5425 4.51904 43.6597 4.88525C43.7769 5.24658 43.8354 5.68848 43.8354 6.21094V11.4038H42.4731V6.19629C42.4731 5.78125 42.4121 5.44922 42.29 5.2002C42.168 4.94629 41.9897 4.76318 41.7554 4.65088C41.521 4.53369 41.2329 4.4751 40.8911 4.4751C40.5542 4.4751 40.2466 4.5459 39.9683 4.6875C39.6948 4.8291 39.458 5.02441 39.2578 5.27344C39.0625 5.52246 38.9087 5.80811 38.7964 6.13037C38.689 6.44775 38.6353 6.78467 38.6353 7.14111ZM47.3657 3.479V11.4038H46.0034V3.479H47.3657ZM45.9009 1.37695C45.9009 1.15723 45.9668 0.97168 46.0986 0.820312C46.2354 0.668945 46.4355 0.593262 46.6992 0.593262C46.958 0.593262 47.1558 0.668945 47.2925 0.820312C47.4341 0.97168 47.5049 1.15723 47.5049 1.37695C47.5049 1.58691 47.4341 1.76758 47.2925 1.91895C47.1558 2.06543 46.958 2.13867 46.6992 2.13867C46.4355 2.13867 46.2354 2.06543 46.0986 1.91895C45.9668 1.76758 45.9009 1.58691 45.9009 1.37695ZM52.7124 10.437C53.0347 10.437 53.3325 10.3711 53.606 10.2393C53.8794 10.1074 54.104 9.92676 54.2798 9.69727C54.4556 9.46289 54.5557 9.19678 54.5801 8.89893H55.8691C55.8447 9.36768 55.686 9.80469 55.3931 10.21C55.105 10.6104 54.7266 10.9351 54.2578 11.1841C53.7891 11.4282 53.2739 11.5503 52.7124 11.5503C52.1167 11.5503 51.5967 11.4453 51.1523 11.2354C50.7129 11.0254 50.3467 10.7373 50.0537 10.3711C49.7656 10.0049 49.5483 9.58496 49.4019 9.11133C49.2603 8.63281 49.1895 8.12744 49.1895 7.59521V7.2876C49.1895 6.75537 49.2603 6.25244 49.4019 5.77881C49.5483 5.30029 49.7656 4.87793 50.0537 4.51172C50.3467 4.14551 50.7129 3.85742 51.1523 3.64746C51.5967 3.4375 52.1167 3.33252 52.7124 3.33252C53.3325 3.33252 53.8745 3.45947 54.3384 3.71338C54.8022 3.9624 55.166 4.3042 55.4297 4.73877C55.6982 5.16846 55.8447 5.65674 55.8691 6.20361H54.5801C54.5557 5.87646 54.4629 5.58105 54.3018 5.31738C54.1455 5.05371 53.9307 4.84375 53.6572 4.6875C53.3887 4.52637 53.0737 4.4458 52.7124 4.4458C52.2974 4.4458 51.9482 4.52881 51.665 4.69482C51.3867 4.85596 51.1646 5.07568 50.9985 5.354C50.8374 5.62744 50.7202 5.93262 50.647 6.26953C50.5786 6.60156 50.5444 6.94092 50.5444 7.2876V7.59521C50.5444 7.94189 50.5786 8.28369 50.647 8.62061C50.7153 8.95752 50.8301 9.2627 50.9912 9.53613C51.1572 9.80957 51.3794 10.0293 51.6577 10.1953C51.9409 10.3564 52.2925 10.437 52.7124 10.437ZM58.7549 0.153809V11.4038H57.3926V0.153809H58.7549ZM63.5962 3.479L60.1392 7.17773L58.2056 9.18457L58.0957 7.7417L59.48 6.08643L61.9409 3.479H63.5962ZM62.3584 11.4038L59.5312 7.62451L60.2344 6.41602L63.9551 11.4038H62.3584ZM68.1372 11.5503C67.5854 11.5503 67.085 11.4575 66.6357 11.272C66.1914 11.0815 65.8081 10.8154 65.4858 10.4736C65.1685 10.1318 64.9243 9.72656 64.7534 9.25781C64.5825 8.78906 64.4971 8.27637 64.4971 7.71973V7.41211C64.4971 6.76758 64.5923 6.19385 64.7827 5.69092C64.9731 5.18311 65.2319 4.75342 65.5591 4.40186C65.8862 4.05029 66.2573 3.78418 66.6724 3.60352C67.0874 3.42285 67.5171 3.33252 67.9614 3.33252C68.5278 3.33252 69.0161 3.43018 69.4263 3.62549C69.8413 3.8208 70.1807 4.09424 70.4443 4.4458C70.708 4.79248 70.9033 5.20264 71.0303 5.67627C71.1572 6.14502 71.2207 6.65771 71.2207 7.21436V7.82227H65.3027V6.71631H69.8657V6.61377C69.8462 6.26221 69.7729 5.92041 69.646 5.58838C69.5239 5.25635 69.3286 4.98291 69.0601 4.76807C68.7915 4.55322 68.4253 4.4458 67.9614 4.4458C67.6538 4.4458 67.3706 4.51172 67.1118 4.64355C66.853 4.77051 66.6309 4.96094 66.4453 5.21484C66.2598 5.46875 66.1157 5.77881 66.0132 6.14502C65.9106 6.51123 65.8594 6.93359 65.8594 7.41211V7.71973C65.8594 8.0957 65.9106 8.44971 66.0132 8.78174C66.1206 9.10889 66.2744 9.39697 66.4746 9.646C66.6797 9.89502 66.9263 10.0903 67.2144 10.2319C67.5073 10.3735 67.8394 10.4443 68.2104 10.4443C68.689 10.4443 69.0942 10.3467 69.4263 10.1514C69.7583 9.95605 70.0488 9.69482 70.2979 9.36768L71.1182 10.0195C70.9473 10.2783 70.73 10.5249 70.4663 10.7593C70.2026 10.9937 69.8779 11.1841 69.4922 11.3306C69.1113 11.4771 68.6597 11.5503 68.1372 11.5503ZM74.2749 0.153809V11.4038H72.9126V0.153809H74.2749ZM78.4717 11.4038H77.1167V2.64404C77.1167 2.07275 77.2192 1.5918 77.4243 1.20117C77.6343 0.805664 77.9346 0.507812 78.3252 0.307617C78.7158 0.102539 79.1797 0 79.7168 0C79.873 0 80.0293 0.00976562 80.1855 0.0292969C80.3467 0.0488281 80.5029 0.078125 80.6543 0.117188L80.5811 1.22314C80.4785 1.19873 80.3613 1.18164 80.2295 1.17188C80.1025 1.16211 79.9756 1.15723 79.8486 1.15723C79.5605 1.15723 79.3115 1.21582 79.1016 1.33301C78.8965 1.44531 78.7402 1.61133 78.6328 1.83105C78.5254 2.05078 78.4717 2.32178 78.4717 2.64404V11.4038ZM80.1562 3.479V4.51904H75.8643V3.479H80.1562ZM81.3062 7.5293V7.36084C81.3062 6.78955 81.3892 6.25977 81.5552 5.77148C81.7212 5.27832 81.9604 4.85107 82.2729 4.48975C82.5854 4.12354 82.9639 3.84033 83.4082 3.64014C83.8525 3.43506 84.3506 3.33252 84.9023 3.33252C85.459 3.33252 85.9595 3.43506 86.4038 3.64014C86.853 3.84033 87.2339 4.12354 87.5464 4.48975C87.8638 4.85107 88.1055 5.27832 88.2715 5.77148C88.4375 6.25977 88.5205 6.78955 88.5205 7.36084V7.5293C88.5205 8.10059 88.4375 8.63037 88.2715 9.11865C88.1055 9.60693 87.8638 10.0342 87.5464 10.4004C87.2339 10.7617 86.8555 11.0449 86.4111 11.25C85.9717 11.4502 85.4736 11.5503 84.917 11.5503C84.3604 11.5503 83.8599 11.4502 83.4155 11.25C82.9712 11.0449 82.5903 10.7617 82.2729 10.4004C81.9604 10.0342 81.7212 9.60693 81.5552 9.11865C81.3892 8.63037 81.3062 8.10059 81.3062 7.5293ZM82.6611 7.36084V7.5293C82.6611 7.9248 82.7075 8.29834 82.8003 8.6499C82.8931 8.99658 83.0322 9.3042 83.2178 9.57275C83.4082 9.84131 83.645 10.0537 83.9282 10.21C84.2114 10.3613 84.541 10.437 84.917 10.437C85.2881 10.437 85.6128 10.3613 85.8911 10.21C86.1743 10.0537 86.4087 9.84131 86.5942 9.57275C86.7798 9.3042 86.9189 8.99658 87.0117 8.6499C87.1094 8.29834 87.1582 7.9248 87.1582 7.5293V7.36084C87.1582 6.97021 87.1094 6.60156 87.0117 6.25488C86.9189 5.90332 86.7773 5.59326 86.5869 5.32471C86.4014 5.05127 86.167 4.83643 85.8838 4.68018C85.6055 4.52393 85.2783 4.4458 84.9023 4.4458C84.5312 4.4458 84.2041 4.52393 83.9209 4.68018C83.6426 4.83643 83.4082 5.05127 83.2178 5.32471C83.0322 5.59326 82.8931 5.90332 82.8003 6.25488C82.7075 6.60156 82.6611 6.97021 82.6611 7.36084ZM90.9741 3.479L92.71 6.36475L94.4678 3.479H96.0571L93.4644 7.39014L96.1377 11.4038H94.5703L92.7393 8.43018L90.9082 11.4038H89.3335L91.9995 7.39014L89.4141 3.479H90.9741ZM97.522 10.686C97.522 10.4565 97.5928 10.2637 97.7344 10.1074C97.8809 9.94629 98.0908 9.86572 98.3643 9.86572C98.6377 9.86572 98.8452 9.94629 98.9868 10.1074C99.1333 10.2637 99.2065 10.4565 99.2065 10.686C99.2065 10.9106 99.1333 11.1011 98.9868 11.2573C98.8452 11.4136 98.6377 11.4917 98.3643 11.4917C98.0908 11.4917 97.8809 11.4136 97.7344 11.2573C97.5928 11.1011 97.522 10.9106 97.522 10.686ZM104.626 10.437C104.949 10.437 105.247 10.3711 105.52 10.2393C105.793 10.1074 106.018 9.92676 106.194 9.69727C106.37 9.46289 106.47 9.19678 106.494 8.89893H107.783C107.759 9.36768 107.6 9.80469 107.307 10.21C107.019 10.6104 106.641 10.9351 106.172 11.1841C105.703 11.4282 105.188 11.5503 104.626 11.5503C104.031 11.5503 103.511 11.4453 103.066 11.2354C102.627 11.0254 102.261 10.7373 101.968 10.3711C101.68 10.0049 101.462 9.58496 101.316 9.11133C101.174 8.63281 101.104 8.12744 101.104 7.59521V7.2876C101.104 6.75537 101.174 6.25244 101.316 5.77881C101.462 5.30029 101.68 4.87793 101.968 4.51172C102.261 4.14551 102.627 3.85742 103.066 3.64746C103.511 3.4375 104.031 3.33252 104.626 3.33252C105.247 3.33252 105.789 3.45947 106.252 3.71338C106.716 3.9624 107.08 4.3042 107.344 4.73877C107.612 5.16846 107.759 5.65674 107.783 6.20361H106.494C106.47 5.87646 106.377 5.58105 106.216 5.31738C106.06 5.05371 105.845 4.84375 105.571 4.6875C105.303 4.52637 104.988 4.4458 104.626 4.4458C104.211 4.4458 103.862 4.52881 103.579 4.69482C103.301 4.85596 103.079 5.07568 102.913 5.354C102.751 5.62744 102.634 5.93262 102.561 6.26953C102.493 6.60156 102.458 6.94092 102.458 7.2876V7.59521C102.458 7.94189 102.493 8.28369 102.561 8.62061C102.629 8.95752 102.744 9.2627 102.905 9.53613C103.071 9.80957 103.293 10.0293 103.572 10.1953C103.855 10.3564 104.207 10.437 104.626 10.437ZM108.948 7.5293V7.36084C108.948 6.78955 109.031 6.25977 109.197 5.77148C109.363 5.27832 109.602 4.85107 109.915 4.48975C110.227 4.12354 110.605 3.84033 111.05 3.64014C111.494 3.43506 111.992 3.33252 112.544 3.33252C113.101 3.33252 113.601 3.43506 114.045 3.64014C114.495 3.84033 114.875 4.12354 115.188 4.48975C115.505 4.85107 115.747 5.27832 115.913 5.77148C116.079 6.25977 116.162 6.78955 116.162 7.36084V7.5293C116.162 8.10059 116.079 8.63037 115.913 9.11865C115.747 9.60693 115.505 10.0342 115.188 10.4004C114.875 10.7617 114.497 11.0449 114.053 11.25C113.613 11.4502 113.115 11.5503 112.559 11.5503C112.002 11.5503 111.501 11.4502 111.057 11.25C110.613 11.0449 110.232 10.7617 109.915 10.4004C109.602 10.0342 109.363 9.60693 109.197 9.11865C109.031 8.63037 108.948 8.10059 108.948 7.5293ZM110.303 7.36084V7.5293C110.303 7.9248 110.349 8.29834 110.442 8.6499C110.535 8.99658 110.674 9.3042 110.859 9.57275C111.05 9.84131 111.287 10.0537 111.57 10.21C111.853 10.3613 112.183 10.437 112.559 10.437C112.93 10.437 113.254 10.3613 113.533 10.21C113.816 10.0537 114.05 9.84131 114.236 9.57275C114.421 9.3042 114.561 8.99658 114.653 8.6499C114.751 8.29834 114.8 7.9248 114.8 7.5293V7.36084C114.8 6.97021 114.751 6.60156 114.653 6.25488C114.561 5.90332 114.419 5.59326 114.229 5.32471C114.043 5.05127 113.809 4.83643 113.525 4.68018C113.247 4.52393 112.92 4.4458 112.544 4.4458C112.173 4.4458 111.846 4.52393 111.562 4.68018C111.284 4.83643 111.05 5.05127 110.859 5.32471C110.674 5.59326 110.535 5.90332 110.442 6.25488C110.349 6.60156 110.303 6.97021 110.303 7.36084ZM119.209 5.05371V11.4038H117.847V3.479H119.136L119.209 5.05371ZM118.931 7.14111L118.301 7.11914C118.306 6.57715 118.376 6.07666 118.513 5.61768C118.65 5.15381 118.853 4.75098 119.121 4.40918C119.39 4.06738 119.724 3.80371 120.125 3.61816C120.525 3.42773 120.989 3.33252 121.516 3.33252C121.887 3.33252 122.229 3.38623 122.542 3.49365C122.854 3.59619 123.125 3.75977 123.354 3.98438C123.584 4.20898 123.762 4.49707 123.889 4.84863C124.016 5.2002 124.08 5.625 124.08 6.12305V11.4038H122.725V6.18896C122.725 5.77393 122.654 5.44189 122.512 5.19287C122.375 4.94385 122.18 4.76318 121.926 4.65088C121.672 4.53369 121.375 4.4751 121.033 4.4751C120.632 4.4751 120.298 4.5459 120.029 4.6875C119.761 4.8291 119.546 5.02441 119.385 5.27344C119.224 5.52246 119.106 5.80811 119.033 6.13037C118.965 6.44775 118.931 6.78467 118.931 7.14111ZM124.065 6.39404L123.157 6.67236C123.162 6.23779 123.232 5.82031 123.369 5.41992C123.511 5.01953 123.713 4.66309 123.977 4.35059C124.246 4.03809 124.575 3.7915 124.966 3.61084C125.356 3.42529 125.803 3.33252 126.306 3.33252C126.731 3.33252 127.107 3.38867 127.434 3.50098C127.766 3.61328 128.044 3.78662 128.269 4.021C128.499 4.25049 128.672 4.5459 128.789 4.90723C128.906 5.26855 128.965 5.69824 128.965 6.19629V11.4038H127.603V6.18164C127.603 5.7373 127.532 5.39307 127.39 5.14893C127.253 4.8999 127.058 4.72656 126.804 4.62891C126.555 4.52637 126.257 4.4751 125.911 4.4751C125.613 4.4751 125.349 4.52637 125.12 4.62891C124.89 4.73145 124.697 4.87305 124.541 5.05371C124.385 5.22949 124.265 5.43213 124.182 5.66162C124.104 5.89111 124.065 6.13525 124.065 6.39404Z" fill="white" fill-opacity="0.8"/>
</svg>
